<svg xmlns="http://www.w3.org/2000/svg" version="1.0" preserveAspectRatio="xMidYMid meet" viewBox="260 224 754 562">

<g transform="translate(0.000000,1650.000000) scale(0.100000,-0.100000)" fill="#000000" stroke="none">
<path d="M5840 13752 l0 -509 -859 -421 c-473 -232 -866 -425 -875 -428 -10 -4 -22 9 -41 46 -14 28 -29 49 -34 46 -11 -7 -241 -311 -241 -319 0 -4 92 -7 205 -7 l205 0 -27 55 c-15 30 -25 56 -22 58 2 3 386 192 853 421 l849 416 224 0 223 0 0 -287 c0 -159 -3 -298 -6 -310 -5 -19 -14 -22 -65 -25 l-59 -3 92 -187 91 -188 94 181 c51 99 93 182 93 184 0 2 -26 5 -57 7 l-58 3 -3 40 c-2 22 -1 163 3 313 l7 272 231 0 231 0 873 -421 c480 -232 873 -424 873 -426 0 -2 -7 -17 -15 -33 -9 -17 -20 -42 -25 -56 l-10 -26 202 7 c112 4 205 9 207 11 2 2 -204 276 -240 318 -4 5 -19 -17 -33 -48 l-25 -56 -30 12 c-16 7 -417 200 -890 428 l-860 415 -1 513 0 512 -540 0 -540 0 0 -508z m660 126 c0 -17 -161 -471 -173 -485 -11 -15 -53 -17 -61 -5 -4 7 131 403 164 480 7 16 18 22 40 22 17 0 30 -5 30 -12z"/>
<path d="M5120 11480 l0 -570 616 0 c558 0 616 -1 610 -16 -3 -9 -6 -162 -6 -340 l0 -324 -60 0 c-42 0 -60 -4 -59 -12 0 -7 40 -91 88 -187 l88 -175 88 168 c48 92 90 176 92 187 5 17 0 19 -57 19 l-63 0 6 83 c4 45 7 198 7 340 l0 257 590 0 590 0 0 570 0 570 -1265 0 -1265 0 0 -570z m410 135 c23 -12 30 -22 30 -46 0 -26 -3 -30 -17 -24 -122 50 -171 7 -164 -143 0 -21 11 -42 27 -58 21 -22 32 -25 67 -21 23 2 52 8 65 12 20 7 22 4 22 -23 0 -37 -20 -51 -88 -58 -60 -7 -128 26 -156 75 -25 43 -27 162 -4 206 44 83 143 119 218 80z m289 -103 c37 -27 51 -59 51 -117 0 -93 -65 -154 -153 -142 -97 13 -142 104 -101 206 30 74 137 102 203 53z m309 3 c29 -24 30 -24 47 -5 42 46 123 28 144 -31 6 -18 11 -74 11 -125 l0 -94 -35 0 -35 0 0 86 c0 94 -10 124 -42 124 -46 0 -58 -26 -58 -122 l0 -88 -35 0 -35 0 0 89 c0 104 -5 121 -33 121 -45 0 -57 -26 -57 -122 l0 -88 -35 0 -35 0 0 135 0 135 30 0 c20 0 30 -5 30 -15 0 -12 6 -11 33 5 43 26 69 25 105 -5z m480 2 c64 -52 52 -216 -19 -252 -36 -19 -53 -19 -89 0 l-30 16 0 -60 c0 -51 -3 -59 -21 -64 -48 -13 -49 -7 -49 189 l0 184 25 0 c14 0 28 -6 31 -14 4 -11 12 -10 42 6 39 20 83 18 110 -5z m301 -5 c37 -27 51 -59 51 -117 0 -93 -65 -154 -153 -142 -97 13 -142 104 -101 206 30 74 137 102 203 53z m273 12 c5 -3 8 -16 8 -28 0 -22 -4 -24 -52 -22 -67 1 -72 -20 -12 -49 63 -31 74 -43 74 -86 0 -48 -28 -76 -86 -85 -56 -8 -99 12 -99 46 0 17 5 24 15 21 8 -3 34 -6 58 -9 37 -4 42 -2 42 17 0 15 -14 28 -50 46 -61 31 -76 61 -56 110 11 24 24 37 48 44 30 9 92 6 110 -5z m244 1 c39 -16 67 -68 62 -114 -3 -25 -5 -26 -85 -29 -80 -3 -83 -4 -83 -27 0 -35 32 -49 102 -41 52 5 58 4 58 -13 0 -27 -22 -41 -77 -47 -124 -15 -198 89 -146 208 31 69 96 94 169 63z"/>
<path d="M5697 11462 c-24 -26 -23 -113 1 -135 23 -21 52 -22 78 -3 15 11 19 27 19 71 0 44 -4 60 -19 71 -27 19 -60 18 -79 -4z"/>
<path d="M6487 11452 c-11 -12 -17 -36 -17 -64 0 -38 4 -49 26 -63 23 -15 28 -15 48 -1 36 23 43 96 13 134 -14 18 -51 15 -70 -6z"/>
<path d="M6787 11462 c-24 -26 -23 -113 1 -135 23 -21 52 -22 78 -3 15 11 19 27 19 71 0 44 -4 60 -19 71 -27 19 -60 18 -79 -4z"/>
<path d="M7332 11468 c-7 -7 -12 -20 -12 -30 0 -15 9 -18 50 -18 41 0 50 3 50 18 0 25 -20 42 -50 42 -14 0 -31 -5 -38 -12z"/>
<path d="M2600 11470 l0 -570 638 0 638 0 355 -546 c195 -300 355 -550 357 -554 2 -5 -19 -24 -47 -42 l-50 -34 175 -103 c97 -56 178 -100 180 -98 8 8 -40 397 -49 397 -4 0 -28 -14 -53 -30 l-44 -31 -34 54 c-19 29 -170 262 -336 518 l-301 464 305 3 306 2 0 570 0 570 -1020 0 -1020 0 0 -570z m910 101 l0 -69 43 16 c37 13 46 13 72 1 85 -40 87 -222 2 -265 -34 -18 -81 -13 -109 13 -17 15 -18 15 -18 0 0 -12 -9 -17 -30 -17 l-30 0 0 195 0 195 35 0 35 0 0 -69z m-461 35 c8 -9 11 -66 9 -182 l-3 -169 -37 -3 -38 -3 0 179 c0 98 3 182 7 185 11 12 50 8 62 -7z m270 -91 c39 -20 51 -61 51 -171 l0 -94 -35 0 -35 0 0 86 c0 94 -10 124 -42 124 -46 0 -58 -26 -58 -122 l0 -88 -35 0 -35 0 0 135 0 135 30 0 c19 0 30 -5 30 -14 0 -11 8 -10 37 5 45 23 56 23 92 4z m630 -13 c37 -27 51 -59 51 -117 0 -93 -65 -154 -153 -142 -97 13 -142 104 -101 206 30 74 137 102 203 53z m171 -22 c11 -22 24 -40 28 -40 4 0 16 17 27 38 16 29 27 38 53 40 17 2 32 1 32 -2 0 -3 -14 -34 -31 -68 l-31 -63 36 -63 c20 -35 36 -66 36 -68 0 -2 -18 -4 -40 -4 -38 0 -42 3 -62 45 -12 25 -25 45 -28 45 -3 0 -16 -20 -28 -45 -20 -41 -25 -45 -57 -45 -19 0 -35 3 -35 6 0 3 16 33 36 67 l37 62 -32 60 c-17 33 -31 63 -31 68 0 4 16 7 35 7 30 0 37 -5 55 -40z"/>
<path d="M3527 11442 c-11 -12 -17 -36 -17 -65 0 -38 4 -49 24 -62 30 -20 62 -7 77 32 10 28 4 79 -13 101 -15 18 -52 15 -71 -6z"/>
<path d="M3827 11452 c-24 -26 -23 -113 1 -135 23 -21 52 -22 78 -3 15 11 19 27 19 71 0 44 -4 60 -19 71 -27 19 -60 18 -79 -4z"/>
<path d="M8100 11450 l0 -570 336 0 c201 0 334 -4 332 -9 -1 -5 -165 -241 -363 -524 l-359 -515 -51 34 c-41 28 -51 31 -53 18 -7 -32 -60 -389 -58 -391 1 -1 84 42 185 97 l184 98 -52 34 c-28 18 -50 36 -48 40 1 4 177 257 390 563 l388 555 604 0 605 0 0 570 0 570 -1020 0 -1020 0 0 -570z m698 134 c29 -20 27 -61 -3 -56 -77 14 -92 13 -105 -3 -19 -23 -4 -44 54 -76 74 -40 91 -62 91 -115 0 -39 -5 -50 -32 -74 -39 -35 -102 -47 -158 -28 -35 11 -40 17 -43 46 -2 23 1 32 12 32 8 0 17 -4 20 -9 12 -19 77 -23 102 -6 40 26 28 54 -41 93 -33 18 -66 40 -72 49 -16 20 -17 87 -3 113 25 47 132 67 178 34z m770 -51 c3 -29 7 -33 32 -33 33 0 44 -12 35 -40 -4 -14 -15 -20 -36 -20 l-29 0 0 -69 c0 -72 7 -86 45 -86 26 0 31 -28 9 -50 -13 -12 -27 -16 -53 -11 -57 9 -71 35 -71 131 0 74 -2 83 -20 88 -14 3 -20 14 -20 31 0 19 5 26 20 26 15 0 20 7 20 28 0 36 8 44 40 40 20 -2 26 -9 28 -35z m-512 -38 c39 -16 67 -68 62 -114 -3 -25 -5 -26 -85 -29 -80 -3 -83 -4 -83 -27 0 -35 32 -49 102 -41 52 5 58 4 58 -13 0 -27 -22 -41 -77 -47 -124 -15 -198 89 -146 208 31 69 96 94 169 63z m323 0 c39 -20 51 -61 51 -171 l0 -94 -35 0 -35 0 0 86 c0 94 -10 124 -42 124 -46 0 -58 -26 -58 -122 l0 -88 -35 0 -35 0 0 135 0 135 30 0 c19 0 30 -5 30 -14 0 -11 8 -10 37 5 45 23 56 23 92 4z"/>
<path d="M8962 11438 c-7 -7 -12 -20 -12 -30 0 -15 9 -18 50 -18 41 0 50 3 50 18 0 25 -20 42 -50 42 -14 0 -31 -5 -38 -12z"/>
<path d="M5000 9215 l0 -575 1375 0 1375 0 0 575 0 575 -1375 0 -1375 0 0 -575z m2088 -22 l2 -193 -30 0 c-18 0 -33 6 -37 15 -5 14 -7 14 -22 1 -43 -38 -120 -26 -145 23 -65 128 18 280 124 228 l30 -15 0 62 c0 35 3 66 7 70 4 4 21 6 38 4 l30 -3 3 -192z m-329 163 c8 -9 11 -66 9 -182 l-3 -169 -37 -3 -38 -3 0 179 c0 98 3 182 7 185 11 12 50 8 62 -7z m-647 -92 c5 -3 8 -16 8 -28 0 -22 -4 -24 -52 -22 -67 1 -72 -20 -12 -49 63 -31 74 -43 74 -86 0 -48 -28 -76 -86 -85 -56 -8 -99 12 -99 46 0 17 5 24 15 21 8 -3 34 -6 58 -9 37 -4 42 -2 42 17 0 15 -14 28 -50 46 -61 31 -76 61 -56 110 11 24 24 37 48 44 30 9 92 6 110 -5z m244 1 c39 -16 67 -68 62 -114 -3 -25 -5 -26 -85 -29 -80 -3 -83 -4 -83 -27 0 -35 32 -49 102 -41 52 5 58 4 58 -13 0 -27 -22 -41 -77 -47 -124 -15 -198 89 -146 208 31 69 96 94 169 63z m272 6 c8 -5 12 -21 10 -37 -3 -25 -7 -29 -30 -26 -43 5 -58 -28 -58 -125 l0 -83 -35 0 -35 0 0 135 0 135 30 0 c21 0 30 -5 30 -16 0 -13 5 -12 26 5 29 23 42 25 62 12z m-908 -106 l5 -100 31 -3 c17 -2 36 3 42 11 6 7 12 53 14 103 l3 89 35 0 35 0 3 -132 3 -133 -31 0 c-18 0 -33 6 -37 15 -5 14 -7 14 -22 1 -43 -39 -118 -27 -141 22 -14 30 -26 192 -16 217 4 11 15 15 38 13 l33 -3 5 -100z"/>
<path d="M6922 9198 c-7 -7 -12 -35 -12 -63 0 -40 5 -56 21 -71 19 -17 23 -17 47 -3 23 13 27 22 30 68 2 30 -2 59 -9 67 -14 17 -61 18 -77 2z"/>
<path d="M6262 9208 c-7 -7 -12 -20 -12 -30 0 -15 9 -18 50 -18 41 0 50 3 50 18 0 25 -20 42 -50 42 -14 0 -31 -5 -38 -12z"/>
</g>
</svg>